<?xml version="1.0" encoding="utf-8"?>
<!-- Generator: Adobe Illustrator 21.1.0, SVG Export Plug-In . SVG Version: 6.00 Build 0)  -->
<svg version="1.1" id="ROM-093_xA0_Image_1_" xmlns="http://www.w3.org/2000/svg" xmlns:xlink="http://www.w3.org/1999/xlink"
	 x="0px" y="0px" viewBox="0 0 159.3 87.2" style="enable-background:new 0 0 159.3 87.2;" xml:space="preserve">
<style type="text/css">
	.st0{fill:#006A53;}
	.st1{fill:#A8283D;}
	.st2{fill:#FFFFFF;}
	.st3{fill-rule:evenodd;clip-rule:evenodd;fill:#FFFFFF;}
	.st4{fill:none;stroke:#FFFFFF;stroke-width:0.3076;stroke-miterlimit:3.8637;}
</style>
<g>
	<polygon class="st0" points="69.1,38.8 44.5,63.3 19.9,38.8 44.5,14.2 69.1,38.8 	"/>
	<polygon class="st0" points="141.4,38.8 116.9,63.3 92.3,38.8 116.9,14.2 141.4,38.8 	"/>
	<polygon class="st1" points="105.3,38.8 80.7,63.3 56.2,38.8 80.7,14.2 105.3,38.8 	"/>
	<g>
		<path class="st2" d="M38.2,35.7l-1.6,0.6c-1-1.1-2.5-1.7-4.4-1.7c-1.4,0-2.6,0.4-3.5,1.1c-0.9,0.7-1.3,1.7-1.3,2.8
			c0,1.2,0.4,2.1,1.3,2.8c0.9,0.7,2.1,1.1,3.6,1.1c1.8,0,3.3-0.6,4.3-1.7l1.5,0.8c-0.7,0.9-1.6,1.5-2.5,1.9c-0.9,0.4-2,0.6-3.3,0.6
			c-1.8,0-3.3-0.5-4.5-1.4c-1.4-1-2.1-2.4-2.1-4.1c0-1.7,0.7-3,2.1-4.1c1.2-0.9,2.7-1.4,4.5-1.4C34.8,33,36.8,33.9,38.2,35.7
			L38.2,35.7z"/>
		<polygon class="st2" points="51.9,43.7 50.2,43.7 50.2,39.1 41.9,39.1 41.9,43.7 40.2,43.7 40.2,33.4 41.9,33.4 41.9,37.6 
			50.2,37.6 50.2,33.4 51.9,33.4 51.9,43.7 		"/>
		<polygon class="st2" points="65.7,43.7 54.9,43.7 54.9,33.4 65.3,33.4 65.3,34.9 56.6,34.9 56.6,37.6 62.7,37.6 62.7,39.1 
			56.6,39.1 56.6,42.1 65.7,42.1 65.7,43.7 		"/>
		<polygon class="st2" points="79.5,43.7 68.2,43.7 68.2,42.1 76.8,34.9 68.4,34.9 68.4,33.4 79.1,33.4 79.1,34.9 70.6,42.1 
			79.5,42.1 79.5,43.7 		"/>
		<polygon class="st2" points="101.4,33.4 98.1,43.7 95.8,43.7 93.3,35.1 90.7,43.7 88.5,43.7 85.1,33.4 87,33.4 89.6,42 92.2,33.4 
			94.4,33.4 96.9,42 99.5,33.4 101.4,33.4 		"/>
		<path class="st3" d="M114,43.7h-1.9l-1.2-2.3H104l-1.2,2.3h-1.9l5.5-10.3h2.2L114,43.7L114,43.7z M110.1,39.8l-2.6-5l-2.6,5H110.1
			L110.1,39.8z"/>
		<path class="st3" d="M122.7,33.4c1.8,0,3.2,0.5,4.3,1.4c1.1,1,1.6,2.2,1.6,3.8c0,1.5-0.6,2.7-1.7,3.7c-1,0.9-2.3,1.4-3.8,1.4h-6.9
			V33.4H122.7L122.7,33.4z M123.2,42.1c1,0,1.9-0.3,2.5-1c0.7-0.7,1-1.5,1-2.5c0-1.1-0.4-2-1.1-2.7c-0.7-0.7-1.6-1-2.8-1h-5v7.2
			H123.2L123.2,42.1z"/>
		<polygon class="st2" points="132.7,43.7 130.9,43.7 130.9,33.4 132.7,33.4 132.7,43.7 		"/>
		<path class="st4" d="M38.2,36.3l-1.6,0.6c-1-1.1-2-1.6-3.8-1.6c-1.4,0-2.6,0.4-3.5,1.1C28.5,37.1,28,38,28,39.1
			c0,1.2,0.4,2.1,1.3,2.8 M29.1,43.7c-0.3-0.1-0.5-0.3-0.8-0.5l-0.1-0.1 M38.7,42.1C38,43,37.1,43.6,36.2,44c-0.9,0.4-2,0.6-3.3,0.6
			c-1.5,0-2.7-0.3-3.8-0.9 M49.6,39.7h-7v4.6h-1.7 M52.5,34v10.3h-1.7 M42.5,34v3.8 M66.3,42.7v1.6H55.5 M63.3,38.2v1.6h-6v1.8
			 M65.9,34v1.6h-8.7v1.4 M80.1,42.7v1.6H68.9 M79.7,34v1.6l-7.3,6.1 M75.4,35.5H69 M93.5,36.8l-2.2,7.4h-2.2 M102,34l-3.4,10.3
			h-2.2 M95.3,34l1.8,5.9 M87.9,34l1.8,6 M107.7,36.1c-0.6,1.1-1.7,3.3-1.7,3.3 M110.7,42h-6.1l-1.2,2.3h-1.9 M109.5,34l5.5,10.3
			h-2.3 M128.6,36.7c0.4,0.7,0.6,1.6,0.6,2.5c0,1.5-0.6,2.7-1.7,3.7c-1,0.9-2.3,1.4-3.8,1.4h-6.8 M124.4,35.6
			c-0.3-0.1-0.6-0.1-1-0.1h-5c0,0,0,6.1,0,6.1 M133.3,34v10.3h-1.7"/>
	</g>
	<path class="st2" d="M26.2,72.3v-4.8H27v2h0.9v-2h0.8v4.8h-0.8v-2.1H27v2.1H26.2z"/>
	<path class="st2" d="M32.9,68.6c0-0.7,0.4-1.2,1.3-1.2c0.9,0,1.3,0.6,1.3,1.2v2.5c0,0.7-0.4,1.2-1.3,1.2c-0.9,0-1.3-0.6-1.3-1.2
		V68.6z M33.8,71.1c0,0.4,0.1,0.5,0.4,0.5c0.3,0,0.4-0.2,0.4-0.5v-2.4c0-0.4-0.1-0.5-0.4-0.5c-0.3,0-0.4,0.2-0.4,0.5V71.1z"/>
	<path class="st2" d="M41.2,68.7c0-0.4-0.3-0.5-0.4-0.5c-0.3,0-0.4,0.2-0.4,0.5c0,0.8,1.7,1.2,1.7,2.5c0,0.8-0.5,1.2-1.3,1.2
		c-0.8,0-1.2-0.6-1.2-1.3l0.8-0.1c0,0.5,0.2,0.7,0.5,0.7c0.3,0,0.5-0.2,0.5-0.4c0-1-1.7-1.2-1.7-2.6c0-0.8,0.5-1.2,1.3-1.2
		c0.7,0,1.1,0.5,1.1,1.2L41.2,68.7z"/>
	<path class="st2" d="M46,72.3v-4.8h1.2c1,0,1.5,0.4,1.5,1.4c0,1-0.5,1.4-1.5,1.4h-0.4v2H46z M46.9,69.6h0.3c0.5,0,0.7-0.2,0.7-0.7
		c0-0.6-0.2-0.7-0.7-0.7h-0.3V69.6z"/>
	<path class="st2" d="M52.8,72.3v-4.8H55v0.7h-1.4v1.2h1.1v0.7h-1.1v1.4h1.5v0.7H52.8z"/>
	<path class="st2" d="M59.2,67.5h1.2c0.9,0,1.3,0.5,1.3,1.5v1.9c0,1-0.5,1.5-1.3,1.5h-1.2V67.5z M60,71.6h0.3c0.4,0,0.6-0.2,0.6-0.7
		v-2.1c0-0.5-0.2-0.7-0.6-0.7H60V71.6z"/>
	<path class="st2" d="M66.4,72.3h-0.8l0.9-4.8h1l0.9,4.8h-0.8l-0.1-1.1h-0.9L66.4,72.3z M66.7,70.5h0.7L67,68.4h0L66.7,70.5z"/>
	<path class="st2" d="M73.1,72.3h-0.8v-4.8h1.2c0.9,0,1.4,0.4,1.4,1.4c0,0.8-0.3,1.1-0.6,1.2l0.7,2.2h-0.8l-0.6-2
		c-0.1,0-0.3,0-0.4,0V72.3z M73.1,69.6h0.3c0.4,0,0.6-0.2,0.6-0.7c0-0.6-0.2-0.7-0.6-0.7h-0.3V69.6z"/>
	<path class="st2" d="M79.1,72.3v-4.8H80v4.8H79.1z"/>
	<path class="st2" d="M84.8,72.3H84l0.9-4.8h1l0.9,4.8H86l-0.1-1.1h-0.9L84.8,72.3z M85,70.5h0.7l-0.3-2.1h0L85,70.5z"/>
	<path class="st2" d="M92.8,69.4c0.3,0,0.6,0.3,0.6,0.6c0,0.3-0.3,0.6-0.6,0.6c-0.3,0-0.6-0.3-0.6-0.6
		C92.1,69.6,92.4,69.4,92.8,69.4z"/>
	<path class="st2" d="M99,67.5h1.2c0.9,0,1.3,0.5,1.3,1.3c0,0.4-0.2,0.8-0.6,1c0.4,0.2,0.7,0.5,0.7,1.1c0,0.8-0.4,1.4-1.3,1.4H99
		V67.5z M99.8,69.4h0.3c0.3,0,0.6-0.2,0.6-0.6c0-0.4-0.2-0.7-0.5-0.7h-0.3V69.4z M99.8,71.6h0.3c0.4,0,0.6-0.3,0.6-0.7
		c0-0.5-0.2-0.7-0.7-0.7h-0.3V71.6z"/>
	<path class="st2" d="M105.8,67.5h0.8v3.6c0,0.4,0.1,0.5,0.4,0.5c0.3,0,0.4-0.2,0.4-0.5v-3.6h0.8v3.6c0,0.8-0.5,1.3-1.3,1.3
		c-0.8,0-1.3-0.5-1.3-1.3V67.5z M107.1,67.2h-0.6l0.5-1h0.9L107.1,67.2z"/>
	<path class="st2" d="M112.6,68.2v-0.7h2.2v0.8l-1.5,3.3h1.5v0.7h-2.4v-0.8l1.5-3.3H112.6z"/>
	<path class="st2" d="M119,72.3v-4.8h0.8v4.8H119z"/>
	<path class="st2" d="M124.1,68.6c0-0.7,0.4-1.2,1.3-1.2c0.9,0,1.3,0.6,1.3,1.2v2.5c0,0.7-0.4,1.2-1.3,1.2c-0.9,0-1.3-0.6-1.3-1.2
		V68.6z M125,71.1c0,0.4,0.1,0.5,0.4,0.5c0.3,0,0.4-0.2,0.4-0.5v-2.4c0-0.4-0.1-0.5-0.4-0.5c-0.3,0-0.4,0.2-0.4,0.5V71.1z"/>
	<path class="st2" d="M132.4,68.7c0-0.4-0.3-0.5-0.4-0.5c-0.3,0-0.4,0.2-0.4,0.5c0,0.8,1.7,1.2,1.7,2.5c0,0.8-0.5,1.2-1.3,1.2
		c-0.8,0-1.2-0.6-1.2-1.3l0.8-0.1c0,0.5,0.2,0.7,0.5,0.7c0.3,0,0.5-0.2,0.5-0.4c0-1-1.7-1.2-1.7-2.6c0-0.8,0.5-1.2,1.3-1.2
		c0.7,0,1.1,0.5,1.1,1.2L132.4,68.7z"/>
</g>
</svg>
